<?xml version="1.0" encoding="UTF-8"?>
<!-- Created with Inkscape (http://www.inkscape.org/) -->
<svg version="1.1" id="Layer_1" xmlns="http://www.w3.org/2000/svg" xmlns:xlink="http://www.w3.org/1999/xlink" x="0px" y="0px"
	 width="210px" height="297px" viewBox="0 0 210 297" enable-background="new 0 0 487.211 642.045"
	 xml:space="preserve">
<polygon fill="#547A00" stroke-width="0.27771" points="37.242,105.640 80.659,105.257 10.382,166.103 76.612,147.734 18.109,208.580 111.198,204.754 110.462,45.564"/>
<polygon fill="#8ECF00" fill-opacity="0.73307" stroke-width="0.22802" points="166,98 133,98 186,152 136,136 180,190 110,187 110,45"/>
=<g>1
 <polygon fill="#FFAAAA" points="100.070,92.337 93.760,78.037 74.455,92.695 88.398,119.508 118.428,139.886 146.313,120.223 160.613,94.125 142.023,78.037"/>
 <polygon fill="#ff1D1D" fill-opacity="0.56574" points="99.758,99.187 75.448,84.887 56.143,99.545 70.086,126.358 100.116,146.736 128.001,127.073 142.301,100.975 123.711,84.887"/>
</g>
<rect x="86.888" y="186.06" width="42.9" height="53.983" fill="#724700" stroke-width=".26458"/>
</svg>



